<svg width="14" height="14" viewBox="0 0 14 14" fill="none" xmlns="http://www.w3.org/2000/svg">
<path fill-rule="evenodd" clip-rule="evenodd" d="M4.19999 2.8H2.79999V2.10007H1.4V4.20001H12.6V2.10007H11.2V2.8H9.79999V2.10007H4.19999V2.8ZM12.6 5.60001H1.4V12.6001H12.6V5.60001ZM9.79999 0.700012H4.19999V0H2.79999V0.700012H1.4C0.626801 0.700012 0 1.32681 0 2.10001V12.6C0 13.3732 0.626801 14 1.4 14H12.6C13.3732 14 14 13.3732 14 12.6V2.10001C14 1.32681 13.3732 0.700012 12.6 0.700012H11.2V0H9.79999V0.700012ZM4.9 8.39999H3.5V7H4.9V8.39999ZM6.29999 8.39999H7.69999V7H6.29999V8.39999ZM10.5 8.39999H9.10001V7H10.5V8.39999ZM3.5 11.2H4.9V9.79999H3.5V11.2ZM7.69999 11.2H6.29999V9.79999H7.69999V11.2Z" fill="#F2B0AC"/>
</svg>
