<?xml version="1.0" encoding="utf-8"?>
<!-- Generator: Adobe Illustrator 22.1.0, SVG Export Plug-In . SVG Version: 6.00 Build 0)  -->
<svg version="1.1" id="Layer_1" xmlns="http://www.w3.org/2000/svg" xmlns:xlink="http://www.w3.org/1999/xlink" x="0px" y="0px"
	 viewBox="0 0 26 26" style="enable-background:new 0 0 26 26;" xml:space="preserve">
<style type="text/css">
	.st0{fill:#EB7095;}
</style>
<path class="st0" d="M19.5,0l-3.4,0c-3.8,0-6.2,2.5-6.2,6.4v3H6.5C6.2,9.3,6,9.6,6,9.9v4.3c0,0.3,0.2,0.5,0.5,0.5h3.4v10.8
	c0,0.3,0.2,0.5,0.5,0.5h4.4c0.3,0,0.5-0.2,0.5-0.5V14.7h4c0.3,0,0.5-0.2,0.5-0.5l0-4.3c0-0.1-0.1-0.3-0.2-0.4
	c-0.1-0.1-0.2-0.2-0.4-0.2h-4V6.8c0-1.2,0.3-1.8,1.9-1.8l2.3,0C19.8,5,20,4.8,20,4.5v-4C20,0.2,19.8,0,19.5,0z"/>
</svg>
