<svg width="26" height="26" viewBox="0 0 26 26" fill="none" xmlns="http://www.w3.org/2000/svg">
<path d="M19.4989 0.00540974L16.1274 0C12.3395 0 9.89162 2.51147 9.89162 6.39863V9.34883H6.50165C6.20871 9.34883 5.9715 9.58632 5.9715 9.87926V14.1538C5.9715 14.4467 6.20898 14.6839 6.50165 14.6839H9.89162V25.4698C9.89162 25.7628 10.1288 26 10.4218 26H14.8447C15.1377 26 15.3749 25.7625 15.3749 25.4698V14.6839H19.3385C19.6315 14.6839 19.8687 14.4467 19.8687 14.1538L19.8703 9.87926C19.8703 9.73861 19.8143 9.6039 19.7151 9.50436C19.6158 9.40483 19.4805 9.34883 19.3399 9.34883H15.3749V6.84791C15.3749 5.64587 15.6613 5.03565 17.2271 5.03565L19.4984 5.03484C19.7911 5.03484 20.0283 4.79735 20.0283 4.50469V0.535564C20.0283 0.243168 19.7913 0.00595071 19.4989 0.00540974Z" fill="#003A81"/>
</svg>
