<svg width="14" height="18" viewBox="0 0 14 18" fill="none" xmlns="http://www.w3.org/2000/svg">
<path fill-rule="evenodd" clip-rule="evenodd" d="M7 17.3659L7.51157 16.9192C11.8134 13.1629 14 9.88303 14 7C14 2.91718 10.8134 0 7 0C3.1866 0 0 2.91718 0 7C0 9.88303 2.18657 13.1629 6.48843 16.9192L7 17.3659ZM7 15.2938C3.34959 12.0039 1.55556 9.21606 1.55556 7C1.55556 3.80847 4.01653 1.55556 7 1.55556C9.98347 1.55556 12.4444 3.80847 12.4444 7C12.4444 9.21606 10.6504 12.0039 7 15.2938ZM7 3.11111C9.14777 3.11111 10.8889 4.85222 10.8889 7C10.8889 9.14777 9.14777 10.8889 7 10.8889C4.85223 10.8889 3.11111 9.14777 3.11111 7C3.11111 4.85222 4.85223 3.11111 7 3.11111ZM4.66666 6.99998C4.66666 5.71132 5.71133 4.66666 6.99999 4.66666C8.28865 4.66666 9.33332 5.71132 9.33332 6.99998C9.33332 8.28867 8.28865 9.33331 6.99999 9.33331C5.71133 9.33331 4.66666 8.28867 4.66666 6.99998Z" fill="#F2B0AC"/>
</svg>
