<svg width="26" height="26" xmlns="http://www.w3.org/2000/svg">
 <defs>
  <clipPath id="clip0">
   <rect id="svg_1" fill="white" height="26" width="26"/>
  </clipPath>
 </defs>
 <g>
  <title>background</title>
  <rect fill="none" id="canvas_background" height="402" width="582" y="-1" x="-1"/>
 </g>
 <g>
  <title>Layer 1</title>
  <g id="svg_2" clip-path="url(#clip0)">
   <path id="svg_3" fill="#ec7494" d="m26,4.93907c-0.9569,0.42403 -1.9837,0.7116 -3.0625,0.83999c1.1015,-0.65965 1.9447,-1.70594 2.3444,-2.94884c-1.0333,0.61088 -2.1739,1.05445 -3.3892,1.2949c-0.9731,-1.03817 -2.3574,-1.68481 -3.8927,-1.68481c-2.9456,0 -5.3339,2.3883 -5.3339,5.33225c0,0.41753 0.0471,0.82533 0.1381,1.21529c-4.43214,-0.22262 -8.36226,-2.34608 -10.99264,-5.57275c-0.4598,0.78637 -0.72137,1.70266 -0.72137,2.68076c0,1.85054 0.94233,3.48336 2.37208,4.43864c-0.8741,-0.0292 -1.69621,-0.2697 -2.41592,-0.66936l0,0.06661c0,2.58325 1.83916,4.73925 4.27781,5.22995c-0.4468,0.1202 -0.91795,0.1868 -1.40536,0.1868c-0.34442,0 -0.67749,-0.0341 -1.00406,-0.0991c0.6791,2.1202 2.64826,3.662 4.98133,3.7043c-1.82454,1.4298 -4.12512,2.2795 -6.62388,2.2795c-0.43053,0 -0.8546,-0.026 -1.27213,-0.0731c2.36069,1.5158 5.1633,2.3996 8.17547,2.3996c9.81147,0 15.17467,-8.1267 15.17467,-15.17461l-0.0179,-0.69049c1.0479,-0.74741 1.9545,-1.68647 2.6677,-2.75553z"/>
  </g>
 </g>
</svg>