<svg width="26" height="26" viewBox="0 0 26 26" fill="none" xmlns="http://www.w3.org/2000/svg">
<path d="M24.895 5.785C24.1897 4.5305 23.4244 4.29975 21.866 4.212C20.3092 4.10638 16.3946 4.0625 13.0033 4.0625C9.60537 4.0625 5.68913 4.10638 4.134 4.21038C2.57887 4.29975 1.81187 4.52887 1.10012 5.785C0.37375 7.03787 0 9.19588 0 12.9951C0 12.9984 0 13 0 13C0 13.0033 0 13.0049 0 13.0049V13.0081C0 16.7911 0.37375 18.9654 1.10012 20.2052C1.81187 21.4597 2.57725 21.6873 4.13237 21.7929C5.68913 21.8839 9.60537 21.9375 13.0033 21.9375C16.3946 21.9375 20.3092 21.8839 21.8676 21.7945C23.426 21.6889 24.1914 21.4614 24.8966 20.2069C25.6295 18.967 26 16.7927 26 13.0097C26 13.0097 26 13.0049 26 13.0016C26 13.0016 26 12.9984 26 12.9967C26 9.19588 25.6295 7.03787 24.895 5.785ZM9.75 17.875V8.125L17.875 13L9.75 17.875Z" fill="#003A81"/>
</svg>
